<?xml version="1.0" encoding="utf-8"?>
<!-- Generator: Adobe Illustrator 25.0.1, SVG Export Plug-In . SVG Version: 6.00 Build 0)  -->
<svg version="1.1" id="cdr_x5F_object" xmlns="http://www.w3.org/2000/svg" xmlns:xlink="http://www.w3.org/1999/xlink" x="0px"
	 y="0px" viewBox="0 0 195 70" style="enable-background:new 0 0 195 70;" xml:space="preserve">
<style type="text/css">
	.st0{fill-rule:evenodd;clip-rule:evenodd;fill:#E20917;}
	.st1{fill-rule:evenodd;clip-rule:evenodd;fill:#A61A17;}
	.st2{fill-rule:evenodd;clip-rule:evenodd;fill:#EE7D02;}
	.st3{fill:#FFFFFF;}
	.st4{fill-rule:evenodd;clip-rule:evenodd;fill:#FFFFFF;}
</style>
	<path class="st0" d="M25.3,0l4.1,19.2c5.7-0.1,9,1.4,10,4.5L36.9,4C36-0.1,30.3,0.2,25.3,0z"/>
	<path class="st1" d="M0,23.9C9.9,4.3,32.9,16.1,37.1,5.2l2.3,18.6c0.9,8.3-19.6,2-27.8,20.3L0,23.9z"/>
	<path class="st0" d="M11.5,27.8l7.3,21.7c0,0,0.1-5.1,6.7-7.7c6.6-2.6,12.9-0.9,20.7-4c7.8-3.1,8.5-5.9,8.5-5.9V2.7
	c0,0-0.9,6-6.9,9.7c-6,3.7-12,4-19.7,5.1C19.7,18.2,11,21.2,11.5,27.8z"/>
	<path class="st2" d="M11.5,27.8c1.7,4.5,5.8,6.8,14.3,5.5v20.9c-2.3-0.1-4.7-1.5-7.1-4.6L11.5,27.8z"/>
	<path class="st3" d="M31.1,67.8v-6.6H32v2.7h3.4v-2.7h0.9v6.6h-0.9v-3.1H32v3.1H31.1z M40.8,67.2c-0.3,0.3-0.6,0.4-0.9,0.5
	c-0.3,0.1-0.6,0.2-0.9,0.2c-0.5,0-0.9-0.1-1.2-0.4c-0.3-0.3-0.4-0.6-0.4-1c0-0.2,0.1-0.4,0.2-0.6s0.2-0.3,0.4-0.5
	c0.2-0.1,0.4-0.2,0.6-0.3c0.2,0,0.4-0.1,0.7-0.1c0.7-0.1,1.1-0.2,1.4-0.3c0-0.1,0-0.2,0-0.2c0-0.3-0.1-0.6-0.2-0.7
	c-0.2-0.2-0.5-0.3-0.9-0.3c-0.4,0-0.7,0.1-0.8,0.2s-0.3,0.4-0.4,0.7l-0.8-0.1c0.1-0.3,0.2-0.6,0.4-0.8c0.2-0.2,0.4-0.4,0.7-0.5
	c0.3-0.1,0.7-0.2,1.1-0.2c0.4,0,0.7,0,1,0.1c0.3,0.1,0.4,0.2,0.6,0.4c0.1,0.1,0.2,0.3,0.3,0.6c0,0.1,0,0.4,0,0.8v1.1
	c0,0.8,0,1.2,0.1,1.4s0.1,0.4,0.2,0.6h-0.8C40.9,67.6,40.8,67.4,40.8,67.2z M40.7,65.4c-0.3,0.1-0.7,0.2-1.3,0.3
	c-0.3,0-0.6,0.1-0.7,0.2c-0.1,0.1-0.2,0.1-0.3,0.3c-0.1,0.1-0.1,0.2-0.1,0.4c0,0.2,0.1,0.4,0.2,0.5c0.2,0.1,0.4,0.2,0.7,0.2
	c0.3,0,0.6-0.1,0.8-0.2c0.2-0.1,0.4-0.3,0.5-0.6c0.1-0.2,0.1-0.5,0.1-0.8V65.4z M42.8,63h0.8v4.1h2.2V63h0.8v4.1h0.5v2h-0.7v-1.4
	h-3.7V63z M48.1,63h0.8v3.7l2.3-3.7H52v4.8h-0.8v-3.6L49,67.8h-0.9V63z M53,65.4c0-0.9,0.2-1.5,0.7-2c0.4-0.4,0.9-0.5,1.5-0.5
	c0.7,0,1.2,0.2,1.6,0.6s0.6,1,0.6,1.8c0,0.6-0.1,1.1-0.3,1.5c-0.2,0.4-0.5,0.6-0.8,0.8c-0.4,0.2-0.7,0.3-1.2,0.3
	c-0.7,0-1.2-0.2-1.6-0.6S53,66.2,53,65.4z M53.8,65.4c0,0.6,0.1,1.1,0.4,1.4c0.3,0.3,0.6,0.5,1,0.5c0.4,0,0.7-0.2,1-0.5
	c0.3-0.3,0.4-0.8,0.4-1.4c0-0.6-0.1-1-0.4-1.3c-0.3-0.3-0.6-0.5-1-0.5c-0.4,0-0.7,0.2-1,0.5C53.9,64.3,53.8,64.8,53.8,65.4z
	 M58.4,63h0.8v2h2.3v-2h0.8v4.8h-0.8v-2.1h-2.3v2.1h-0.8V63z M66.6,67.2c-0.3,0.3-0.6,0.4-0.9,0.5c-0.3,0.1-0.6,0.2-0.9,0.2
	c-0.5,0-0.9-0.1-1.2-0.4c-0.3-0.3-0.4-0.6-0.4-1c0-0.2,0.1-0.4,0.2-0.6s0.2-0.3,0.4-0.5c0.2-0.1,0.4-0.2,0.6-0.3
	c0.2,0,0.4-0.1,0.7-0.1c0.7-0.1,1.1-0.2,1.4-0.3c0-0.1,0-0.2,0-0.2c0-0.3-0.1-0.6-0.2-0.7c-0.2-0.2-0.5-0.3-0.9-0.3
	c-0.4,0-0.7,0.1-0.8,0.2s-0.3,0.4-0.4,0.7l-0.8-0.1c0.1-0.3,0.2-0.6,0.4-0.8c0.2-0.2,0.4-0.4,0.7-0.5c0.3-0.1,0.7-0.2,1.1-0.2
	c0.4,0,0.7,0,1,0.1c0.3,0.1,0.4,0.2,0.6,0.4c0.1,0.1,0.2,0.3,0.3,0.6c0,0.1,0,0.4,0,0.8v1.1c0,0.8,0,1.2,0.1,1.4s0.1,0.4,0.2,0.6
	h-0.8C66.7,67.6,66.7,67.4,66.6,67.2z M66.6,65.4c-0.3,0.1-0.7,0.2-1.3,0.3c-0.3,0-0.6,0.1-0.7,0.2c-0.1,0.1-0.2,0.1-0.3,0.3
	c-0.1,0.1-0.1,0.2-0.1,0.4c0,0.2,0.1,0.4,0.2,0.5c0.2,0.1,0.4,0.2,0.7,0.2c0.3,0,0.6-0.1,0.8-0.2c0.2-0.1,0.4-0.3,0.5-0.6
	c0.1-0.2,0.1-0.5,0.1-0.8V65.4z M69.1,63h3.8v4.8H72v-4.1h-2.2V66c0,0.6,0,0.9-0.1,1.1c0,0.2-0.1,0.3-0.3,0.5s-0.4,0.2-0.7,0.2
	c-0.2,0-0.4,0-0.7,0v-0.7h0.4c0.2,0,0.3,0,0.4-0.1c0.1,0,0.1-0.1,0.1-0.2c0-0.1,0-0.3,0-0.7V63z M74,63h0.8v1.9h1
	c0.7,0,1.2,0.1,1.6,0.4c0.4,0.3,0.5,0.6,0.5,1.1c0,0.4-0.2,0.7-0.5,1c-0.3,0.3-0.8,0.4-1.5,0.4h-2V63z M74.9,67.1h0.9
	c0.5,0,0.9-0.1,1.1-0.2c0.2-0.1,0.3-0.3,0.3-0.6c0-0.2-0.1-0.4-0.2-0.6c-0.2-0.2-0.5-0.2-1.1-0.2h-1V67.1z M78.9,63h0.8v2h2.3v-2
	h0.8v4.8h-0.8v-2.1h-2.3v2.1h-0.8V63z M87.1,67.2c-0.3,0.3-0.6,0.4-0.9,0.5c-0.3,0.1-0.6,0.2-0.9,0.2c-0.5,0-0.9-0.1-1.2-0.4
	c-0.3-0.3-0.4-0.6-0.4-1c0-0.2,0.1-0.4,0.2-0.6s0.2-0.3,0.4-0.5c0.2-0.1,0.4-0.2,0.6-0.3c0.2,0,0.4-0.1,0.7-0.1
	c0.7-0.1,1.1-0.2,1.4-0.3c0-0.1,0-0.2,0-0.2c0-0.3-0.1-0.6-0.2-0.7c-0.2-0.2-0.5-0.3-0.9-0.3c-0.4,0-0.7,0.1-0.8,0.2
	s-0.3,0.4-0.4,0.7l-0.8-0.1c0.1-0.3,0.2-0.6,0.4-0.8c0.2-0.2,0.4-0.4,0.7-0.5c0.3-0.1,0.7-0.2,1.1-0.2c0.4,0,0.7,0,1,0.1
	c0.3,0.1,0.4,0.2,0.6,0.4c0.1,0.1,0.2,0.3,0.3,0.6c0,0.1,0,0.4,0,0.8v1.1c0,0.8,0,1.2,0.1,1.4s0.1,0.4,0.2,0.6h-0.8
	C87.2,67.6,87.1,67.4,87.1,67.2z M87,65.4c-0.3,0.1-0.7,0.2-1.3,0.3c-0.3,0-0.6,0.1-0.7,0.2c-0.1,0.1-0.2,0.1-0.3,0.3
	c-0.1,0.1-0.1,0.2-0.1,0.4c0,0.2,0.1,0.4,0.2,0.5c0.2,0.1,0.4,0.2,0.7,0.2c0.3,0,0.6-0.1,0.8-0.2c0.2-0.1,0.4-0.3,0.5-0.6
	C87,66.3,87,66,87,65.7V65.4z M92.9,63v4.8h-0.8v-1.9h-0.5c-0.3,0-0.5,0-0.6,0.1c-0.1,0.1-0.3,0.3-0.6,0.7l-0.7,1h-1l0.9-1.3
	c0.3-0.4,0.5-0.6,0.8-0.7c-0.5-0.1-0.8-0.2-1-0.5C89.1,65,89,64.7,89,64.4c0-0.4,0.1-0.8,0.4-1c0.3-0.3,0.7-0.4,1.3-0.4H92.9z
	 M92.1,63.7h-1.2c-0.5,0-0.8,0.1-0.9,0.2c-0.1,0.2-0.2,0.3-0.2,0.5c0,0.3,0.1,0.5,0.3,0.6s0.6,0.2,1.1,0.2h0.9V63.7z M99.8,66
	l0.8,0.1c-0.1,0.6-0.3,1-0.7,1.3c-0.4,0.3-0.8,0.5-1.3,0.5c-0.7,0-1.2-0.2-1.6-0.6c-0.4-0.4-0.6-1-0.6-1.8c0-0.5,0.1-1,0.3-1.4
	c0.2-0.4,0.4-0.7,0.8-0.9c0.4-0.2,0.7-0.3,1.1-0.3c0.5,0,0.9,0.1,1.3,0.4c0.3,0.3,0.5,0.6,0.6,1.1l-0.8,0.1
	c-0.1-0.3-0.2-0.6-0.4-0.7c-0.2-0.2-0.4-0.2-0.7-0.2c-0.4,0-0.7,0.1-1,0.4c-0.3,0.3-0.4,0.8-0.4,1.4c0,0.6,0.1,1.1,0.4,1.4
	c0.2,0.3,0.6,0.4,1,0.4c0.3,0,0.6-0.1,0.8-0.3C99.6,66.7,99.8,66.4,99.8,66z M101.3,63h0.8v3.7l2.3-3.7h0.9v4.8h-0.8v-3.6l-2.3,3.6
	h-0.9V63z M109.6,66l0.8,0.1c-0.1,0.6-0.3,1-0.7,1.3c-0.4,0.3-0.8,0.5-1.3,0.5c-0.7,0-1.2-0.2-1.6-0.6c-0.4-0.4-0.6-1-0.6-1.8
	c0-0.5,0.1-1,0.3-1.4c0.2-0.4,0.4-0.7,0.8-0.9c0.4-0.2,0.7-0.3,1.1-0.3c0.5,0,0.9,0.1,1.3,0.4c0.3,0.3,0.5,0.6,0.6,1.1l-0.8,0.1
	c-0.1-0.3-0.2-0.6-0.4-0.7c-0.2-0.2-0.4-0.2-0.7-0.2c-0.4,0-0.7,0.1-1,0.4c-0.3,0.3-0.4,0.8-0.4,1.4c0,0.6,0.1,1.1,0.4,1.4
	c0.2,0.3,0.6,0.4,1,0.4c0.3,0,0.6-0.1,0.8-0.3C109.4,66.7,109.6,66.4,109.6,66z M110.7,63h3.9v0.7H113v4.1h-0.8v-4.1h-1.5V63z
	 M118.5,66.2l0.8,0.1c-0.1,0.5-0.4,0.9-0.7,1.1c-0.4,0.3-0.8,0.4-1.4,0.4c-0.7,0-1.3-0.2-1.7-0.6c-0.4-0.4-0.6-1-0.6-1.8
	c0-0.8,0.2-1.4,0.6-1.9c0.4-0.4,1-0.7,1.6-0.7c0.6,0,1.2,0.2,1.6,0.7c0.4,0.4,0.6,1.1,0.6,1.8c0,0,0,0.1,0,0.2h-3.6
	c0,0.5,0.2,0.9,0.4,1.2c0.3,0.3,0.6,0.4,1,0.4c0.3,0,0.6-0.1,0.8-0.2C118.2,66.8,118.4,66.6,118.5,66.2z M115.9,64.9h2.7
	c0-0.4-0.1-0.7-0.3-0.9c-0.3-0.3-0.6-0.5-1-0.5c-0.4,0-0.7,0.1-0.9,0.4C116,64.2,115.9,64.5,115.9,64.9z M120.4,63h1.3l1.3,3.8
	l1.4-3.8h1.2v4.8h-0.8v-3.9l-1.4,3.9h-0.7l-1.3-4v4h-0.8V63z M129.9,67.2c-0.3,0.3-0.6,0.4-0.9,0.5c-0.3,0.1-0.6,0.2-0.9,0.2
	c-0.5,0-0.9-0.1-1.2-0.4c-0.3-0.3-0.4-0.6-0.4-1c0-0.2,0.1-0.4,0.2-0.6s0.2-0.3,0.4-0.5c0.2-0.1,0.4-0.2,0.6-0.3
	c0.2,0,0.4-0.1,0.7-0.1c0.7-0.1,1.1-0.2,1.4-0.3c0-0.1,0-0.2,0-0.2c0-0.3-0.1-0.6-0.2-0.7c-0.2-0.2-0.5-0.3-0.9-0.3
	c-0.4,0-0.7,0.1-0.8,0.2c-0.2,0.1-0.3,0.4-0.4,0.7l-0.8-0.1c0.1-0.3,0.2-0.6,0.4-0.8c0.2-0.2,0.4-0.4,0.7-0.5
	c0.3-0.1,0.7-0.2,1.1-0.2c0.4,0,0.7,0,1,0.1c0.3,0.1,0.4,0.2,0.6,0.4c0.1,0.1,0.2,0.3,0.3,0.6c0,0.1,0,0.4,0,0.8v1.1
	c0,0.8,0,1.2,0.1,1.4s0.1,0.4,0.2,0.6H130C130,67.6,129.9,67.4,129.9,67.2z M129.8,65.4c-0.3,0.1-0.7,0.2-1.3,0.3
	c-0.3,0-0.6,0.1-0.7,0.2c-0.1,0.1-0.2,0.1-0.3,0.3c-0.1,0.1-0.1,0.2-0.1,0.4c0,0.2,0.1,0.4,0.2,0.5c0.2,0.1,0.4,0.2,0.7,0.2
	c0.3,0,0.6-0.1,0.8-0.2c0.2-0.1,0.4-0.3,0.5-0.6c0.1-0.2,0.1-0.5,0.1-0.8V65.4z M138,61l0.7,0c0,0.3-0.1,0.5-0.2,0.7
	c-0.1,0.1-0.3,0.2-0.4,0.2s-0.5,0.1-1,0.1c-0.7,0-1.1,0.1-1.4,0.2c-0.2,0.1-0.4,0.3-0.5,0.6c-0.1,0.3-0.2,0.7-0.2,1.1
	c0.2-0.3,0.4-0.5,0.7-0.7s0.6-0.2,0.9-0.2c0.6,0,1.2,0.2,1.6,0.6s0.6,1,0.6,1.8c0,0.6-0.1,1-0.3,1.4c-0.2,0.4-0.5,0.6-0.7,0.8
	c-0.3,0.2-0.7,0.3-1.2,0.3c-0.6,0-1-0.1-1.3-0.4s-0.6-0.6-0.7-1c-0.2-0.4-0.3-1.1-0.3-2.1c0-1.3,0.2-2.1,0.6-2.6
	c0.4-0.4,1.1-0.7,2-0.7c0.6,0,0.9,0,0.9,0C137.9,61.1,138,61.1,138,61z M137.9,65.4c0-0.5-0.1-0.9-0.4-1.2c-0.2-0.3-0.6-0.5-1-0.5
	c-0.4,0-0.8,0.2-1,0.5c-0.2,0.3-0.4,0.8-0.4,1.4c0,0.6,0.1,1,0.4,1.3s0.6,0.4,1,0.4c0.4,0,0.7-0.2,1-0.5
	C137.8,66.4,137.9,65.9,137.9,65.4z M139.8,69.6V63h0.7v0.6c0.2-0.2,0.4-0.4,0.6-0.5c0.2-0.1,0.5-0.2,0.8-0.2c0.4,0,0.8,0.1,1.1,0.3
	c0.3,0.2,0.5,0.5,0.7,0.9c0.2,0.4,0.2,0.8,0.2,1.3c0,0.5-0.1,0.9-0.3,1.3c-0.2,0.4-0.4,0.7-0.8,0.9c-0.3,0.2-0.7,0.3-1.1,0.3
	c-0.3,0-0.5-0.1-0.7-0.2c-0.2-0.1-0.4-0.3-0.5-0.4v2.3H139.8z M140.5,65.4c0,0.6,0.1,1.1,0.4,1.4s0.6,0.4,0.9,0.4
	c0.4,0,0.7-0.2,0.9-0.5c0.3-0.3,0.4-0.8,0.4-1.4c0-0.6-0.1-1.1-0.4-1.4c-0.3-0.3-0.6-0.5-0.9-0.5c-0.3,0-0.7,0.2-0.9,0.5
	C140.6,64.3,140.5,64.8,140.5,65.4z M144.6,65.4c0-0.9,0.2-1.5,0.7-2c0.4-0.4,0.9-0.5,1.5-0.5c0.7,0,1.2,0.2,1.6,0.6s0.6,1,0.6,1.8
	c0,0.6-0.1,1.1-0.3,1.5c-0.2,0.4-0.5,0.6-0.8,0.8c-0.4,0.2-0.7,0.3-1.2,0.3c-0.7,0-1.2-0.2-1.6-0.6S144.6,66.2,144.6,65.4z
	 M145.4,65.4c0,0.6,0.1,1.1,0.4,1.4c0.3,0.3,0.6,0.5,1,0.5c0.4,0,0.7-0.2,1-0.5c0.3-0.3,0.4-0.8,0.4-1.4c0-0.6-0.1-1-0.4-1.3
	c-0.3-0.3-0.6-0.5-1-0.5c-0.4,0-0.7,0.2-1,0.5C145.6,64.3,145.4,64.8,145.4,65.4z M150.1,63h0.8v2h2.3v-2h0.8v4.8h-0.8v-2.1h-2.3
	v2.1h-0.8V63z M155.2,63h0.8v3.7l2.3-3.7h0.9v4.8h-0.8v-3.6l-2.3,3.6h-0.9V63z M160.3,69.6V63h0.7v0.6c0.2-0.2,0.4-0.4,0.6-0.5
	c0.2-0.1,0.5-0.2,0.8-0.2c0.4,0,0.8,0.1,1.1,0.3c0.3,0.2,0.5,0.5,0.7,0.9c0.2,0.4,0.2,0.8,0.2,1.3c0,0.5-0.1,0.9-0.3,1.3
	c-0.2,0.4-0.4,0.7-0.8,0.9c-0.3,0.2-0.7,0.3-1.1,0.3c-0.3,0-0.5-0.1-0.7-0.2c-0.2-0.1-0.4-0.3-0.5-0.4v2.3H160.3z M161.1,65.4
	c0,0.6,0.1,1.1,0.4,1.4s0.6,0.4,0.9,0.4c0.4,0,0.7-0.2,0.9-0.5c0.3-0.3,0.4-0.8,0.4-1.4c0-0.6-0.1-1.1-0.4-1.4
	c-0.3-0.3-0.6-0.5-0.9-0.5c-0.3,0-0.7,0.2-0.9,0.5C161.2,64.3,161.1,64.8,161.1,65.4z M165.2,65.4c0-0.9,0.2-1.5,0.7-2
	c0.4-0.4,0.9-0.5,1.5-0.5c0.7,0,1.2,0.2,1.6,0.6s0.6,1,0.6,1.8c0,0.6-0.1,1.1-0.3,1.5c-0.2,0.4-0.5,0.6-0.8,0.8
	c-0.4,0.2-0.7,0.3-1.2,0.3c-0.7,0-1.2-0.2-1.6-0.6S165.2,66.2,165.2,65.4z M166,65.4c0,0.6,0.1,1.1,0.4,1.4c0.3,0.3,0.6,0.5,1,0.5
	c0.4,0,0.7-0.2,1-0.5c0.3-0.3,0.4-0.8,0.4-1.4c0-0.6-0.1-1-0.4-1.3c-0.3-0.3-0.6-0.5-1-0.5c-0.4,0-0.7,0.2-1,0.5
	C166.1,64.3,166,64.8,166,65.4z M170.6,63h1.9c0.5,0,0.8,0,1,0.1c0.2,0.1,0.4,0.2,0.6,0.4c0.2,0.2,0.2,0.5,0.2,0.7
	c0,0.2,0,0.4-0.1,0.6c-0.1,0.2-0.2,0.3-0.4,0.4c0.2,0.1,0.4,0.2,0.6,0.4s0.2,0.5,0.2,0.7c0,0.5-0.2,0.8-0.5,1s-0.7,0.3-1.3,0.3h-2.2
	V63z M171.4,65h0.9c0.3,0,0.6,0,0.7-0.1c0.1,0,0.2-0.1,0.3-0.2c0.1-0.1,0.2-0.2,0.2-0.4c0-0.3-0.1-0.4-0.3-0.5s-0.5-0.1-0.9-0.1
	h-0.9V65z M171.4,67.1h1.1c0.5,0,0.8-0.1,0.9-0.2c0.2-0.1,0.3-0.3,0.3-0.6c0-0.2,0-0.3-0.1-0.4c-0.1-0.1-0.2-0.2-0.4-0.2
	c-0.2,0-0.4-0.1-0.8-0.1h-1V67.1z M178.6,67.2c-0.3,0.3-0.6,0.4-0.9,0.5c-0.3,0.1-0.6,0.2-0.9,0.2c-0.5,0-0.9-0.1-1.2-0.4
	c-0.3-0.3-0.4-0.6-0.4-1c0-0.2,0.1-0.4,0.2-0.6s0.2-0.3,0.4-0.5c0.2-0.1,0.4-0.2,0.6-0.3c0.2,0,0.4-0.1,0.7-0.1
	c0.7-0.1,1.1-0.2,1.4-0.3c0-0.1,0-0.2,0-0.2c0-0.3-0.1-0.6-0.2-0.7c-0.2-0.2-0.5-0.3-0.9-0.3c-0.4,0-0.7,0.1-0.8,0.2
	s-0.3,0.4-0.4,0.7l-0.8-0.1c0.1-0.3,0.2-0.6,0.4-0.8c0.2-0.2,0.4-0.4,0.7-0.5c0.3-0.1,0.7-0.2,1.1-0.2c0.4,0,0.7,0,1,0.1
	c0.3,0.1,0.4,0.2,0.6,0.4c0.1,0.1,0.2,0.3,0.3,0.6c0,0.1,0,0.4,0,0.8v1.1c0,0.8,0,1.2,0.1,1.4s0.1,0.4,0.2,0.6h-0.8
	C178.6,67.6,178.6,67.4,178.6,67.2z M178.5,65.4c-0.3,0.1-0.7,0.2-1.3,0.3c-0.3,0-0.6,0.1-0.7,0.2c-0.1,0.1-0.2,0.1-0.3,0.3
	c-0.1,0.1-0.1,0.2-0.1,0.4c0,0.2,0.1,0.4,0.2,0.5c0.2,0.1,0.4,0.2,0.7,0.2c0.3,0,0.6-0.1,0.8-0.2c0.2-0.1,0.4-0.3,0.5-0.6
	c0.1-0.2,0.1-0.5,0.1-0.8V65.4z M180.6,63h0.8v2h2.3v-2h0.8v4.8h-0.8v-2.1h-2.3v2.1h-0.8V63z M185.7,63h0.8v3.7l2.3-3.7h0.9v4.8
	h-0.8v-3.6l-2.3,3.6h-0.9V63z M194.6,63v4.8h-0.8v-1.9h-0.5c-0.3,0-0.5,0-0.6,0.1c-0.1,0.1-0.3,0.3-0.6,0.7l-0.7,1h-1l0.9-1.3
	c0.3-0.4,0.5-0.6,0.8-0.7c-0.5-0.1-0.8-0.2-1-0.5c-0.2-0.3-0.3-0.6-0.3-0.9c0-0.4,0.1-0.8,0.4-1c0.3-0.3,0.7-0.4,1.3-0.4H194.6z
	 M193.8,63.7h-1.2c-0.5,0-0.8,0.1-0.9,0.2c-0.1,0.2-0.2,0.3-0.2,0.5c0,0.3,0.1,0.5,0.3,0.6s0.6,0.2,1.1,0.2h0.9V63.7z"/>
	<path class="st4" d="M160.2,54c0,0.3-0.1,0.5-0.2,0.5c-0.1,0.1-0.3,0.1-0.5,0.1h-2c-0.3,0-0.5-0.1-0.5-0.2c-0.1-0.1-0.1-0.3-0.1-0.5
	v-2c0-0.3,0.1-0.5,0.2-0.5c0.1-0.1,0.3-0.1,0.5-0.1h2c0.3,0,0.5,0.1,0.5,0.2c0.1,0.1,0.1,0.3,0.1,0.5V54L160.2,54z M169.4,53.9
	c0,0.3-0.1,0.5-0.3,0.6c-0.4,0.2-1.1,0.3-2.2,0.3c-2,0-3.4-0.6-4.1-1.7c-0.4-0.6-0.6-1.6-0.6-2.9v-3.9c0-1.3,0.2-2.4,0.7-3
	c0.7-1,2-1.5,3.9-1.5c1.1,0,1.8,0.1,2.2,0.3c0.2,0.1,0.3,0.3,0.3,0.6v1.8c0,0.3-0.1,0.5-0.4,0.5c-0.3,0-0.6,0-0.9-0.1
	c-0.4-0.1-0.7-0.1-0.9-0.1c-0.7,0-1.2,0.2-1.5,0.6c-0.2,0.3-0.3,0.7-0.3,1.3v3.4c0,0.5,0.1,0.9,0.2,1.2c0.3,0.5,0.8,0.7,1.5,0.7
	l1-0.1c0.1,0,0.2,0,0.4-0.1c0.2,0,0.3-0.1,0.4-0.1c0.2,0,0.3,0,0.3,0.1c0.1,0.1,0.1,0.2,0.1,0.3V53.9L169.4,53.9z M179.5,50.2
	c0,1.2-0.2,2.2-0.7,3c-0.7,1.1-1.9,1.7-3.6,1.7c-1.7,0-2.9-0.5-3.6-1.7c-0.5-0.7-0.7-1.7-0.7-3v-3.9c0-1.2,0.2-2.2,0.7-3
	c0.7-1.1,1.9-1.7,3.6-1.7c1.7,0,2.9,0.5,3.6,1.7c0.5,0.7,0.7,1.7,0.7,3V50.2L179.5,50.2z M176.4,50.7v-5c0-0.6-0.1-1-0.4-1.2
	c-0.2-0.2-0.5-0.3-0.9-0.3c-0.3,0-0.6,0.1-0.8,0.3c-0.3,0.3-0.4,0.7-0.4,1.2v5c0,0.6,0.1,1,0.4,1.2c0.2,0.2,0.5,0.3,0.8,0.3
	c0.3,0,0.6-0.1,0.8-0.3C176.3,51.7,176.4,51.3,176.4,50.7L176.4,50.7z M195,54c0,0.3-0.1,0.5-0.2,0.5c-0.1,0.1-0.3,0.1-0.5,0.1h-1.8
	c-0.2,0-0.4,0-0.5-0.1c-0.1-0.1-0.2-0.3-0.2-0.5v-8.2c0-0.3-0.1-0.6-0.3-0.8c-0.2-0.2-0.5-0.3-0.8-0.3c-0.5,0-0.8,0.2-1,0.6
	c-0.1,0.2-0.1,0.6-0.1,1.1V54c0,0.3-0.1,0.5-0.2,0.5c-0.1,0.1-0.3,0.1-0.5,0.1h-1.8c-0.3,0-0.5-0.1-0.5-0.2
	c-0.1-0.1-0.1-0.3-0.1-0.5v-8.2c0-0.3-0.1-0.6-0.3-0.8c-0.2-0.2-0.5-0.3-0.8-0.3c-0.5,0-0.8,0.2-1,0.6c-0.1,0.2-0.1,0.6-0.1,1.1V54
	c0,0.3-0.1,0.5-0.2,0.5c-0.1,0.1-0.3,0.1-0.5,0.1h-1.8c-0.3,0-0.5-0.1-0.5-0.2c-0.1-0.1-0.1-0.3-0.1-0.5V42.5c0-0.3,0.1-0.5,0.2-0.5
	c0.1-0.1,0.3-0.1,0.5-0.1h2c0.1,0,0.2,0,0.3,0.1c0.1,0.1,0.1,0.2,0.1,0.3c0,0.2,0,0.2,0.1,0.2c0,0,0.1,0,0.2-0.1
	c0.3-0.3,0.7-0.5,1-0.6c0.3-0.1,0.7-0.2,1-0.2c0.4,0,0.8,0.1,1.2,0.3c0.3,0.1,0.6,0.3,0.9,0.6c0.2,0.1,0.3,0.2,0.4,0.2
	c0.1,0,0.2-0.1,0.4-0.2c0.4-0.3,0.8-0.6,1.2-0.7c0.4-0.1,0.8-0.2,1.3-0.2c0.8,0,1.5,0.2,2,0.7c0.6,0.6,0.9,1.5,0.9,2.7V54z"/>
	<path class="st4" d="M46,47.6c0-1.9-0.5-3.4-1.6-4.5c-0.1-0.1-0.4-0.3-0.8-0.7c-0.2-0.1-0.4-0.2-0.5-0.3c-0.6-0.3-0.8-0.5-0.9-0.5
	c0.1-0.1,0.1-0.1,0.2-0.2c1.7-1.3,2.6-2.9,2.6-4.6c0-2.7-1-4.4-3.1-5.2c-0.6-0.2-1.2-0.4-1.7-0.5c-0.6-0.1-0.9-0.2-1-0.2h-7.9
	c-0.3,0-0.5,0.2-0.5,0.5v22c0,0.4,0.2,0.7,0.5,0.7h8.6c2.8,0,4.7-1.2,5.7-3.6C45.8,49.7,46,48.7,46,47.6L46,47.6z M35.6,35.2
	c0.1,0,0.4,0,1,0c0.8,0,1.2,0,1.4,0c1.3,0.1,1.9,0.8,1.9,2.1c0,1.2-0.5,1.9-1.4,2.2c-0.4,0.1-1.1,0.2-2,0.2c-0.5,0-0.8,0-0.9,0
	l-0.2-0.2v-4.1L35.6,35.2L35.6,35.2z M35.6,44.2c0.1,0,0.5,0,1,0c1.1,0,1.9,0.1,2.2,0.2c1.3,0.5,1.9,1.4,1.9,2.7
	c0,1.8-0.9,2.7-2.6,2.8c-0.2,0-0.7,0-1.5,0c-0.6,0-0.9,0-1,0l-0.2-0.2v-5.3L35.6,44.2L35.6,44.2z M54.5,44.5l4.3,9.3
	c0.1,0.2,0.3,0.3,0.5,0.3h4.1c0.2,0,0.4-0.2,0.4-0.6c0-0.3-0.1-0.6-0.2-0.9L59.8,44c-0.1-0.3-0.2-0.4-0.2-0.5c0,0,0.1-0.1,0.2-0.2
	c2.2-1.4,3.3-3.4,3.3-5.9c0-2.9-1.4-4.9-4.1-5.9c-0.9-0.3-1.7-0.5-2.4-0.5H49c-0.4,0-0.7,0.2-0.7,0.5v22c0,0.4,0.2,0.7,0.5,0.7h3.6
	c0.4,0,0.6-0.2,0.6-0.7v-8.9H54.5L54.5,44.5z M55.9,35.2c1.4,0,2.1,0.8,2.1,2.5c0,1.2-0.5,2-1.6,2.3c-0.4,0.1-1.1,0.2-2.1,0.2
	c-0.5,0-0.9,0-1,0L53.2,40v-4.8H55.9L55.9,35.2z M72.5,54.5c1.1,0,2-0.1,2.7-0.3c2-0.7,3.3-2.2,3.9-4.4c0.2-0.8,0.4-1.5,0.4-2.1
	v-9.8c0-0.7-0.2-1.7-0.5-2.9c-0.5-1.9-1.8-3.2-3.8-3.9c-0.7-0.2-1.6-0.4-2.7-0.4c-1,0-1.9,0.1-2.8,0.4c-1.6,0.5-2.8,1.6-3.6,3.4
	c-0.4,1.1-0.7,2.1-0.7,3.1v10.1c0,1,0.2,2,0.7,3.1C67.2,53.2,69.4,54.5,72.5,54.5L72.5,54.5z M72.5,50.2c-1.5,0-2.2-0.9-2.2-2.6
	V37.5c0-1.7,0.7-2.6,2.2-2.6c1.5,0,2.2,0.9,2.2,2.6v10.1C74.7,49.4,74,50.2,72.5,50.2L72.5,50.2z M82.1,31.5v22.1l0.5,0.5h3.4
	l0.6-0.5V41.9l5.4,11.8c0.1,0.2,0.3,0.3,0.5,0.3h2.9l0.5-0.5V31.5L95.5,31h-3.4l-0.6,0.5v10.5l-4.9-10.6c-0.1-0.2-0.3-0.3-0.5-0.3
	h-3.4L82.1,31.5L82.1,31.5z M98.8,31.5v22c0,0.4,0.2,0.7,0.5,0.7h12c0.4,0,0.5-0.1,0.5-0.3v-3.4l-0.4-0.4h-7.9v-5.6l0.2-0.3h5.5
	l0.4-0.4v-3.4l-0.4-0.4h-5.6v-4.4l0.2-0.2h7.2c0.3,0,0.5-0.2,0.5-0.6v-3.1L111,31H99.3L98.8,31.5L98.8,31.5z M113.4,32l4.8,21.4
	c0.1,0.4,0.3,0.7,0.5,0.7h4.6c0.3,0,0.5-0.3,0.7-1l4.8-21.3c0,0,0-0.2,0-0.3c0-0.3-0.1-0.5-0.2-0.5h-3.8c-0.4,0-0.6,0.2-0.7,0.7
	l-2.8,12.5c-0.1,0.4-0.1,0.5-0.2,0.5c-0.1,0-0.2-0.1-0.3-0.4L118,31.6c-0.1-0.4-0.3-0.7-0.7-0.7h-3.9V32L113.4,32z M130.4,31.5v22
	c0,0.4,0.2,0.7,0.5,0.7h3.6c0.3,0,0.5-0.2,0.5-0.7v-22l-0.5-0.5h-3.6L130.4,31.5L130.4,31.5z M138.1,31.5v22.1l0.5,0.5h3.6
	c0.4,0,0.6-0.2,0.6-0.7v-7.7l1.3-1.7h0.2l4.5,9.3c0.3,0.6,0.5,0.8,0.8,0.8h3.8c0.3,0,0.5-0.3,0.5-0.8c0-0.2-0.1-0.5-0.2-0.8
	l-6.2-13.3l5.2-7.3c0.1-0.2,0.2-0.4,0.2-0.5c0-0.3-0.1-0.5-0.3-0.5h-4.1c-0.4,0-0.7,0.2-1,0.7l-4.5,6.5v-6.7l-0.6-0.5h-3.6
	L138.1,31.5z"/>
</svg>
