<svg xmlns="http://www.w3.org/2000/svg" viewBox="0 0 30 30">
	<style>.color{fill:#FFFFFF;}</style>
	<rect fill="none" width="30" height="30"/>
	<g class="color">
		<path d="M15,1c7.7,0,14,6.3,14,14s-6.3,14-14,14S1,22.7,1,15S7.3,1,15,1 M15,0C6.7,0,0,6.7,0,15s6.7,15,15,15
			s15-6.7,15-15S23.3,0,15,0L15,0z"/>
		<path d="M14.7,6c-0.1,3.6-0.3,5.6-1.7,7s-3.4,1.6-7,1.7v0.6c3.6,0.1,5.6,0.3,7,1.7c1.4,1.4,1.6,3.4,1.7,7h0.6
	c0.1-3.6,0.3-5.6,1.7-7c1.4-1.4,3.4-1.6,7-1.7v-0.6c-3.6-0.1-5.6-0.3-7-1.7c-1.4-1.4-1.6-3.4-1.7-7H14.7z"/>
	</g>
</svg>
