<svg xmlns="http://www.w3.org/2000/svg" viewBox="0 0 30 30">
	<style>.color{fill:#FFFFFF;}</style>
	<rect fill="none" width="30" height="30"/>
	<g class="color">
		<path d="M15,1c7.7,0,14,6.3,14,14s-6.3,14-14,14S1,22.7,1,15S7.3,1,15,1 M15,0C6.7,0,0,6.7,0,15s6.7,15,15,15
			s15-6.7,15-15S23.3,0,15,0L15,0z"/>
		<path d="M19.3,15.5c-0.3-0.5-0.9-0.6-1.6-0.3c0,0-1.3,0.8-2.7,0.8s-2.7-0.8-2.7-0.8c-0.7-0.4-1.3-0.2-1.6,0.3
			c-0.3,0.5-0.2,1.2,0.4,1.5c0,0,1,0.7,2.4,1l-2.4,2.2c-0.5,0.4-0.4,1.1,0,1.5c0.5,0.5,1.2,0.3,1.6,0l2.3-2l2.3,2
			c0.4,0.3,1.1,0.5,1.6,0c0.4-0.4,0.4-1.1,0-1.5L16.5,18c1.5-0.3,2.4-1,2.4-1C19.5,16.6,19.7,16,19.3,15.5z"/>
		<path d="M15,7c-2.2,0-4,1.8-4,4s1.8,4,4,4s4-1.8,4-4S17.2,7,15,7z M15,13c-1.1,0-2-0.9-2-2s0.9-2,2-2s2,0.9,2,2
			S16.1,13,15,13z"/>
	</g>
</svg>
