<svg xmlns="http://www.w3.org/2000/svg" viewBox="0 0 30 30">
	<style>.color{fill:#FFFFFF;}</style>
	<rect fill="none" width="28" height="28"/>
	<g class="color">
		<path d="M15,1c7.7,0,14,6.3,14,14s-6.3,14-14,14S1,22.7,1,15S7.3,1,15,1 M15,0C6.7,0,0,6.7,0,15s6.7,15,15,15
			s15-6.7,15-15S23.3,0,15,0L15,0z"/>
		<path d="M15.8,21C9.6,21,6.1,17.2,6,11h3c0.1,4.6,2.2,6.6,4,7v-7h3v3.7c1.8-0.1,3.4-1.7,4-3.7h3c-0.5,2.4-2.6,4.2-4,5
			c1.5,0.6,3.2,2.1,4,5h-3c-0.7-1.9-1.8-3.5-4-3.7V21H15.8z"/>
	</g>
</svg>
