<svg xmlns="http://www.w3.org/2000/svg" viewBox="0 0 30 30">
	<style>.color{fill:#FFFFFF;}</style>
	<rect fill="none" width="28" height="28"/>
	<g class="color">
		<path d="M15,1c7.7,0,14,6.3,14,14s-6.3,14-14,14
			S1,22.7,1,15S7.3,1,15,1 M15,0C6.7,0,0,6.7,0,15s6.7,15,15,15s15-6.7,15-15S23.3,0,15,0L15,0z"/>
		<path d="M21,9c-0.6,0.1-14,5.5-14,5.5c-0.7,0.3-1,0.5-1,0.8c0,0.5,3.1,1.4,3.6,1.4s1.3-0.2,1.9-0.6l6.2-3.9
			c0.3-0.2,0.5,0.2,0.3,0.4l-4,3.9c-0.8,0.8-1.6,1.3-0.3,2.2c0,0,2.7,1.8,4.4,2.9c1.5,1,2,0,2.2-1.1L22,10C22.1,9.2,21.6,8.9,21,9z"/>
	</g>
</svg>
